<?xml version="1.0" encoding="UTF-8" standalone="no"?>
<!-- Created with Inkscape (http://www.inkscape.org/) -->

<svg
   version="1.1"
   id="svg66"
   width="437.23331"
   height="122.717"
   viewBox="0 0 437.23331 122.71697"
   sodipodi:docname="Jangala_identity.eps"
   xmlns:inkscape="http://www.inkscape.org/namespaces/inkscape"
   xmlns:sodipodi="http://sodipodi.sourceforge.net/DTD/sodipodi-0.dtd"
   xmlns="http://www.w3.org/2000/svg"
   xmlns:svg="http://www.w3.org/2000/svg">
  <defs
     id="defs70" />
  <sodipodi:namedview
     id="namedview68"
     pagecolor="#ffffff"
     bordercolor="#666666"
     borderopacity="1.0"
     inkscape:showpageshadow="2"
     inkscape:pageopacity="0.0"
     inkscape:pagecheckerboard="true"
     inkscape:deskcolor="#d1d1d1"
     showgrid="false" />
  <g
     id="g74"
     inkscape:groupmode="layer"
     inkscape:label="Page 1"
     transform="matrix(1.3333333,0,0,-1.3333333,-169.16375,143.23862)">
    <g
       id="g2162"
       style="fill:#00A1D1;fill-opacity:1"
       transform="translate(13.921815,-11.435776)"
       inkscape:export-filename="Jangala logos/New Logos/jng-purple-raster-med.png"
       inkscape:export-xdpi="263.47488"
       inkscape:export-ydpi="263.47488">
      <path
         d="m 239.104,113.203 c 0,2.271 -1.434,3.347 -4.303,3.347 -2.389,0 -5.019,-0.119 -7.887,-0.239 -4.543,-0.24 -5.26,-0.957 -5.26,-5.498 0,-7.65 0,-7.65 0.598,-8.845 0.478,-0.955 1.912,-1.434 3.944,-1.434 4.661,0.119 4.661,0.119 5.976,0.119 0.838,0 0.838,0 2.629,-0.119 1.675,-0.12 2.75,0.239 3.347,1.195 0.836,1.077 0.836,1.077 0.836,7.052 l 0.12,4.422"
         style="fill:#00A1D1;fill-opacity:1;fill-rule:nonzero;stroke:none;stroke-width:0.1"
         id="path78" />
      <path
         d="m 207.492,95.0711 c -2.629,0 -3.107,-2.0313 -2.75,-10.1582 0.239,-4.7809 0.239,-4.7809 0.239,-5.3797 v -1.5531 c -0.358,-4.0629 -0.358,-4.0629 -0.358,-6.6922 0,-2.6309 0,-8.607 0.119,-9.5629 0.239,-7.768 0.239,-7.768 0.239,-8.9629 v -2.391 c -0.358,-6.3352 -0.358,-6.3352 -0.358,-8.007 0,-2.9891 0.836,-4.0653 3.107,-4.0653 1.315,0 2.629,0 4.303,0.1211 h 1.196 c 0.836,0 1.912,0 3.345,-0.1211 1.076,-0.1187 1.914,-0.1187 2.869,-0.1187 3.346,0 3.467,0.4789 3.467,9.4429 0,0.836 0,0.836 -0.359,5.377 0,6.3359 0.119,16.2559 0.359,17.2121 0.598,4.8988 3.227,7.5289 7.409,7.5289 3.945,0 6.694,-2.868 7.531,-7.889 0.238,-1.6719 0.597,-14.461 0.597,-23.3051 l -0.597,-4.6617 c 0,-1.3141 0.716,-2.6293 1.433,-3.1071 0.838,-0.3582 1.196,-0.3582 9.323,-0.3582 4.9,0.2391 5.498,0.3582 6.095,0.9551 0.599,0.4789 1.195,2.75 1.195,4.543 v 3.9441 l 0.24,6.4527 v 2.6293 c -0.359,8.1278 -0.359,8.1278 -0.359,8.8457 v 1.5543 c 0.119,2.7481 0.119,4.5411 0.119,6.4539 0,6.334 -2.031,12.1899 -5.498,16.134 -2.988,3.3461 -8.484,5.8571 -12.908,5.8571 -5.138,0 -10.277,-1.0762 -11.832,-2.511 l -0.477,-0.4769 -1.077,-0.7172 c -2.749,2.8672 -2.749,2.8672 -4.182,2.8672 h -2.629 -1.436 l -8.365,0.1199"
         style="fill:#00A1D1;fill-opacity:1;fill-rule:nonzero;stroke:none;stroke-width:0.1"
         id="path80" />
      <path
         d="m 159.224,112.942 c -0.976,0 -2.238,-0.121 -2.745,-1.119 -0.674,-1.326 -0.005,-3.321 -0.069,-4.75 v 0 c -0.037,-0.819 -0.049,-1.631 -0.055,-2.451 -0.006,-0.795 -0.341,-1.661 -0.183,-2.469 0.224,-1.132 1.477,-1.312 2.453,-1.312 1.076,0 2.392,0 3.348,0.119 0.716,0.119 1.314,0.119 1.433,0.119 l 4.901,-0.358 3.226,0.239 3.825,-0.119 3.826,0.119 4.301,-0.119 5.14,0.119 h 2.271 c 0.957,-0.119 1.792,-0.119 2.391,-0.119 1.359,0 2.569,0.4 2.816,1.88 0.21,1.271 0.073,2.562 0.02,3.841 -0.054,1.281 0.272,2.494 0.272,3.751 0,1.912 -0.837,2.629 -3.229,2.629 l -13.982,-0.239 c -1.793,0 -2.51,0 -4.422,0.119 -1.436,0.12 -2.51,0.12 -2.631,0.12 -0.836,0 -2.748,0 -6.094,-0.12 h -1.555 c -0.716,0 -1.793,0 -2.988,0.12 h -2.27"
         style="fill:#00A1D1;fill-opacity:1;fill-rule:nonzero;stroke:none;stroke-width:0.1"
         id="path82" />
      <path
         d="m 154.361,79.773 c 0,-1.673 1.195,-2.8679 2.988,-2.8679 0.477,0 0.956,0.1187 1.434,0.239 11.832,3.5848 13.028,3.8239 18.047,3.8239 4.662,0 8.246,-2.0321 8.246,-4.5418 0,-0.9563 -1.074,-1.9121 -2.15,-1.9121 -0.598,0 -1.674,0.1199 -3.227,0.4781 -0.957,0.1199 -2.39,0.2387 -4.303,0.2387 -6.095,0 -8.964,-0.3579 -12.43,-1.434 -4.302,-1.1949 -6.573,-2.3899 -7.888,-3.825 -3.227,-3.3457 -5.14,-8.127 -5.14,-12.4309 0,-6.214 1.554,-10.5148 5.259,-14.4609 2.989,-3.2262 8.844,-5.3781 14.342,-5.3781 l 2.869,0.121 c 1.912,-0.241 1.912,-0.241 2.031,-0.241 2.391,0 6.694,0.9571 7.889,1.9121 2.271,1.434 2.271,1.434 2.391,1.434 0.238,0 0.357,-0.1172 0.478,-0.2383 1.672,-2.5097 1.793,-2.5097 2.51,-2.5097 h 0.597 l 2.869,0.1187 c 9.92,0.2403 10.278,0.4793 10.278,6.4551 0,0.7172 0,1.5551 -0.119,2.1512 l -0.119,0.8379 c 0.119,2.509 0.119,2.509 0.119,2.748 0,0.5969 0,1.5539 -0.119,2.75 v 2.15 c 0,0.7172 0,1.6738 0.119,2.6289 0.119,2.8692 0.119,2.8692 0.119,4.184 v 2.5102 c -0.119,2.0308 -0.119,3.5847 -0.119,3.8238 v 7.291 c 0,5.8563 -0.119,7.8883 -0.838,9.3223 -1.433,3.466 -3.346,5.259 -8.006,8.2468 -3.108,1.9129 -8.129,2.9879 -14.463,2.9879 -8.007,0 -12.908,-0.7168 -16.373,-2.2711 l -3.945,-1.6726 c -2.151,-0.8371 -2.748,-1.434 -3.107,-2.9883 z m 23.067,-17.689 c 4.183,0 7.41,-2.2711 7.41,-5.259 0,-3.1078 -2.868,-5.2578 -7.051,-5.2578 -6.693,0 -10.398,1.793 -10.398,4.9 0,3.7047 3.465,5.6168 10.039,5.6168"
         style="fill:#00A1D1;fill-opacity:1;fill-rule:nonzero;stroke:none;stroke-width:0.1"
         id="path84" />
      <path
         d="m 393.784,79.773 c 0,-1.673 1.195,-2.8679 2.988,-2.8679 0.477,0 0.956,0.1187 1.434,0.239 11.832,3.5848 13.027,3.8239 18.049,3.8239 4.66,0 8.246,-2.0321 8.246,-4.5418 0,-0.9563 -1.076,-1.9121 -2.152,-1.9121 -0.596,0 -1.672,0.1199 -3.227,0.4781 -0.955,0.1199 -2.391,0.2387 -4.303,0.2387 -6.095,0 -8.965,-0.3579 -12.429,-1.434 -4.303,-1.1949 -6.575,-2.3899 -7.889,-3.825 -3.227,-3.3457 -5.139,-8.127 -5.139,-12.4309 0,-6.214 1.553,-10.5148 5.258,-14.4609 2.988,-3.2262 8.846,-5.3781 14.342,-5.3781 l 2.869,0.121 c 1.912,-0.241 1.912,-0.241 2.031,-0.241 2.393,0 6.694,0.9571 7.891,1.9121 2.269,1.434 2.269,1.434 2.389,1.434 0.24,0 0.359,-0.1172 0.478,-0.2383 1.674,-2.5097 1.793,-2.5097 2.51,-2.5097 h 0.598 l 2.869,0.1187 c 9.92,0.2403 10.279,0.4793 10.279,6.4551 0,0.7172 0,1.5551 -0.121,2.1512 l -0.119,0.8379 c 0.119,2.509 0.119,2.509 0.119,2.748 0,0.5969 0,1.5539 -0.119,2.75 v 2.15 c 0,0.7172 0,1.6738 0.119,2.6289 0.121,2.8692 0.121,2.8692 0.121,4.184 v 2.5102 c -0.121,2.0308 -0.121,3.5847 -0.121,3.8238 v 7.291 c 0,5.8563 -0.119,7.8883 -0.836,9.3223 -1.436,3.466 -3.348,5.259 -8.008,8.2468 -3.107,1.9129 -8.129,2.9879 -14.463,2.9879 -8.008,0 -12.908,-0.7168 -16.373,-2.2711 l -3.945,-1.6726 c -2.151,-0.8371 -2.748,-1.434 -3.108,-2.9883 z m 23.067,-17.689 c 4.183,0 7.41,-2.2711 7.41,-5.259 0,-3.1078 -2.867,-5.2578 -7.051,-5.2578 -6.693,0 -10.398,1.793 -10.398,4.9 0,3.7047 3.466,5.6168 10.039,5.6168"
         style="fill:#00A1D1;fill-opacity:1;fill-rule:nonzero;stroke:none;stroke-width:0.1"
         id="path86" />
      <path
         d="m 133.748,118.497 c -2.271,0 -4.064,-0.598 -4.543,-1.673 -0.477,-0.956 -0.477,-0.956 -0.477,-18.765 l 0.12,-15.418 -0.12,-3.5851 -0.12,-10.8758 c -0.12,-5.618 -1.553,-9.6821 -3.944,-10.9961 -1.195,-0.7168 -1.554,-0.7168 -6.933,-0.7168 -3.944,-0.1192 -4.78,-1.0762 -4.78,-6.334 0,-0.5992 0,-1.4352 0.119,-2.6312 l 0.12,-2.986 c 0,-5.141 1.435,-6.3359 7.29,-6.3359 9.442,0 11.475,0.2379 15.418,1.434 6.813,2.0328 10.997,8.7257 11.356,17.9269 0.357,29.2828 0.357,35.1399 0.477,36.0969 0.12,1.9121 0.12,3.3461 0.12,3.5851 l -0.12,13.147 c 0,0.598 0.12,1.554 0.24,2.868 0.119,0.956 0.119,1.673 0.119,2.392 0,2.03 -1.434,3.106 -4.064,3.106 l -4.542,-0.239 h -5.736"
         style="fill:#00A1D1;fill-opacity:1;fill-rule:nonzero;stroke:none;stroke-width:0.1"
         id="path88" />
      <path
         d="m 311.513,83.8371 -0.119,2.032 0.119,5.3778 c 0,2.5101 -1.315,3.5859 -4.422,3.5859 h -3.586 c -1.074,0 -2.389,0 -2.986,0.1192 l -2.631,0.1199 c -0.598,0 -0.955,-0.1199 -1.194,-0.359 -1.197,-1.6731 -1.197,-1.6731 -1.554,-1.6731 -0.479,0 -0.717,0.1204 -2.51,1.1942 -1.912,1.0762 -5.498,1.793 -9.084,1.793 -7.529,0 -12.19,-1.075 -15.657,-3.704 -6.215,-4.6609 -9.442,-11.9519 -9.442,-21.275 0,-5.0191 1.197,-9.323 3.348,-12.3089 3.824,-5.2602 3.824,-5.2602 4.78,-5.8582 1.673,-1.0758 1.673,-1.0758 2.39,-1.5528 1.912,-1.4351 1.912,-1.4351 3.705,-1.914 6.573,-1.6711 6.933,-1.7911 11.116,-1.7911 3.227,0 4.541,0.2391 8.006,1.7911 0.6,0.241 1.197,0.3597 1.555,0.3597 0.838,0 1.433,-0.5976 1.433,-1.5547 0,-1.7929 -1.314,-3.8242 -3.107,-4.7812 -1.434,-0.8359 -2.869,-1.0738 -6.215,-1.0738 -4.422,0 -8.725,0.5968 -11.593,1.673 -8.605,3.227 -9.56,3.4649 -10.876,3.4649 -2.032,0 -2.749,-1.4329 -2.749,-5.736 v -2.9879 -1.7929 c -0.119,-0.7172 -0.119,-1.3153 -0.119,-1.793 0,-2.1512 1.434,-3.5863 5.617,-5.3793 5.26,-2.2699 8.487,-2.9859 13.267,-2.9859 12.549,0 15.297,0.2378 19.959,1.7921 3.586,1.1938 5.617,2.0321 7.172,3.227 2.988,2.2719 5.138,6.334 5.138,9.8008 l -0.119,9.9203 0.239,8.3648 c 0,0.359 0,1.6731 -0.12,3.586 v 2.6289 l 0.239,7.0531 v 7.2898 z m -26.055,-4.184 c 5.617,0 9.203,-3.466 9.203,-8.8453 0,-5.1379 -3.824,-8.3656 -9.801,-8.3656 -5.498,0 -9.441,3.5867 -9.441,8.6058 0,1.793 0.359,2.509 1.912,4.7809 2.031,2.7492 4.303,3.8242 8.127,3.8242"
         style="fill:#00A1D1;fill-opacity:1;fill-rule:nonzero;stroke:none;stroke-width:0.1"
         id="path90" />
      <path
         d="m 318.21,79.773 c 0,-1.673 1.195,-2.8679 2.988,-2.8679 0.479,0 0.957,0.1187 1.434,0.239 11.834,3.5848 13.029,3.8239 18.049,3.8239 4.66,0 8.246,-2.0321 8.246,-4.5418 0,-0.9563 -1.076,-1.9121 -2.151,-1.9121 -0.597,0 -1.673,0.1199 -3.228,0.4781 -0.955,0.1199 -2.389,0.2387 -4.303,0.2387 -6.094,0 -8.963,-0.3579 -12.43,-1.434 -4.302,-1.1949 -6.572,-2.3899 -7.888,-3.825 -3.227,-3.3457 -5.139,-8.127 -5.139,-12.4309 0,-6.214 1.555,-10.5148 5.26,-14.4609 2.988,-3.2262 8.844,-5.3781 14.342,-5.3781 l 2.867,0.121 c 1.914,-0.241 1.914,-0.241 2.033,-0.241 2.391,0 6.693,0.9571 7.889,1.9121 2.269,1.434 2.269,1.434 2.39,1.434 0.239,0 0.358,-0.1172 0.477,-0.2383 1.674,-2.5097 1.793,-2.5097 2.51,-2.5097 h 0.597 l 2.869,0.1187 c 9.92,0.2403 10.28,0.4793 10.28,6.4551 0,0.7172 0,1.5551 -0.121,2.1512 l -0.119,0.8379 c 0.119,2.509 0.119,2.509 0.119,2.748 0,0.5969 0,1.5539 -0.119,2.75 v 2.15 c 0,0.7172 0,1.6738 0.119,2.6289 0.121,2.8692 0.121,2.8692 0.121,4.184 v 2.5102 c -0.121,2.0308 -0.121,3.5847 -0.121,3.8238 v 7.291 c 0,5.8563 -0.119,7.8883 -0.836,9.3223 -1.434,3.466 -3.346,5.259 -8.008,8.2468 -3.108,1.9129 -8.127,2.9879 -14.461,2.9879 -8.008,0 -12.908,-0.7168 -16.375,-2.2711 l -3.943,-1.6726 c -2.153,-0.8371 -2.75,-1.434 -3.108,-2.9883 z m 23.068,-17.689 c 4.182,0 7.409,-2.2711 7.409,-5.259 0,-3.1078 -2.868,-5.2578 -7.051,-5.2578 -6.692,0 -10.397,1.793 -10.397,4.9 0,3.7047 3.465,5.6168 10.039,5.6168"
         style="fill:#00A1D1;fill-opacity:1;fill-rule:nonzero;stroke:none;stroke-width:0.1"
         id="path92" />
      <path
         d="m 387.247,114.194 c 0,3.825 -0.838,4.781 -3.943,4.661 l -3.826,-0.238 -5.499,0.119 c -2.39,0 -3.345,-0.477 -4.183,-2.031 -0.358,-0.718 -0.477,-3.825 -0.477,-10.399 l 0.119,-11.2349 c -0.359,-7.052 -0.359,-7.6481 -0.359,-11.1141 0,-2.9879 0,-6.5738 0.121,-12.789 V 69.1359 L 368.603,45.948 c 0,-6.2148 0.955,-7.6492 4.898,-7.6492 h 1.076 c 0.717,0.1211 1.317,0.1211 1.317,0.1211 h 1.671 c 1.196,-0.1211 2.272,-0.1211 3.227,-0.1211 4.305,0 6.096,1.6742 6.096,5.7383 l -0.119,9.8008 c -0.12,2.1512 -0.12,3.8242 -0.12,4.182 l 0.358,17.211 -0.119,8.2472 c 0,0.9559 0,1.7918 0.119,2.6289 0.119,3.3469 0.119,3.3469 0.119,4.661 0,0.8371 0,1.7929 -0.119,2.8699 -0.238,6.9311 -0.238,6.9311 -0.238,8.3661 0,1.433 0,2.868 0.119,4.422 0.359,4.302 0.359,4.302 0.359,6.812 v 0.956"
         style="fill:#00A1D1;fill-opacity:1;fill-rule:nonzero;stroke:none;stroke-width:0.1"
         id="path94" />
    </g>
  </g>
</svg>
